<?xml version="1.0" standalone="no"?>
<!DOCTYPE svg PUBLIC "-//W3C//DTD SVG 20010904//EN"
 "http://www.w3.org/TR/2001/REC-SVG-20010904/DTD/svg10.dtd">
<svg version="1.0" xmlns="http://www.w3.org/2000/svg"
 width="515.000000pt" height="173.000000pt" viewBox="0 0 515.000000 173.000000"
 preserveAspectRatio="xMidYMid meet">

<g transform="translate(0.000000,173.000000) scale(0.100000,-0.100000)"
fill="#000000" stroke="none">
<path d="M987 1189 c-68 -10 -111 -33 -162 -90 -80 -89 -104 -212 -66 -337 38
-128 145 -202 290 -202 135 0 230 50 275 144 39 81 37 86 -34 86 -55 0 -60 -2
-66 -25 -3 -14 -21 -38 -39 -54 -134 -117 -325 -17 -325 170 0 71 12 104 53
148 39 41 84 61 134 61 82 0 147 -38 173 -101 12 -27 16 -29 72 -29 l61 0 -7
32 c-28 138 -181 222 -359 197z"/>
<path d="M335 1180 c-3 -6 -55 -145 -114 -310 l-108 -300 36 -1 c20 -1 43 -2
51 -3 29 -3 46 13 64 63 l18 52 136 -3 135 -3 16 -47 c9 -26 19 -49 22 -52 7
-7 127 -12 132 -6 4 5 -222 583 -236 608 -10 15 -143 17 -152 2z m129 -260
c26 -72 44 -135 41 -140 -10 -15 -185 -13 -185 3 0 20 84 267 91 267 4 0 28
-59 53 -130z"/>
<path d="M1596 1148 c-67 -179 -205 -573 -202 -575 3 -4 66 -6 103 -4 19 1 31
29 103 247 45 135 84 243 87 240 3 -2 44 -114 92 -248 l88 -243 64 3 c35 2 65
5 67 7 1 1 -51 139 -117 306 l-119 304 -75 3 -75 3 -16 -43z"/>
<path d="M2070 1132 l0 -60 148 -4 c163 -3 186 -10 222 -71 45 -74 35 -220
-19 -269 -42 -38 -89 -48 -228 -48 l-123 0 0 -57 0 -58 152 2 c188 3 227 12
289 72 57 55 81 126 81 236 0 99 -23 172 -72 227 -61 70 -97 80 -287 86 l-163
4 0 -60z"/>
<path d="M2690 1130 l0 -60 228 2 227 3 0 55 0 55 -227 3 -228 2 0 -60z"/>
<path d="M3270 1179 c0 -15 270 -522 283 -530 5 -4 17 -5 26 -4 9 2 26 4 39 4
12 1 26 9 29 19 4 9 22 44 41 77 44 77 69 121 95 168 11 20 24 37 29 37 4 0 8
-85 8 -190 l0 -190 60 0 60 0 -2 308 -3 307 -60 0 -60 0 -103 -190 c-57 -104
-107 -194 -111 -198 -4 -4 -55 81 -113 190 l-106 198 -56 3 c-38 2 -56 -1 -56
-9z"/>
<path d="M4060 1140 l0 -50 61 0 60 0 -3 48 -3 47 -57 3 -58 3 0 -51z"/>
<path d="M4263 1175 c3 -8 47 -75 97 -150 50 -75 89 -142 87 -148 -3 -7 -50
-77 -106 -157 -55 -79 -96 -147 -91 -150 7 -4 45 -5 107 -1 7 1 45 51 85 111
40 61 75 110 78 110 3 0 38 -51 79 -113 l73 -113 60 2 c33 1 61 4 62 6 2 2
-91 141 -207 311 l-209 307 -60 0 c-48 0 -59 -3 -55 -15z"/>
<path d="M4616 1116 c-25 -40 -46 -79 -46 -86 0 -13 49 -80 59 -80 3 0 19 21
35 48 17 26 49 77 73 113 24 36 43 69 43 73 0 3 -27 6 -59 6 l-59 0 -46 -74z"/>
<path d="M3263 796 l2 -229 55 0 55 0 2 119 3 119 -60 110 -60 110 3 -229z"/>
<path d="M4060 790 l0 -220 60 0 60 0 -2 218 -3 217 -57 3 -58 3 0 -221z"/>
<path d="M2690 875 l0 -55 228 2 227 3 0 50 0 50 -227 3 -228 2 0 -55z"/>
<path d="M2690 623 l0 -58 231 3 230 3 -3 52 -3 52 -227 3 -228 2 0 -57z"/>
</g>
</svg>
